<svg xmlns="http://www.w3.org/2000/svg" viewBox="0 0 760.01 283.51"><defs><style>.cls-1{fill:red;}.cls-2{stroke:#000;stroke-miterlimit:10;stroke-width:0.03px;}</style></defs><title>Asset 1</title><g id="Layer_2" data-name="Layer 2"><g id="Layer_1-2" data-name="Layer 1"><rect x="65.5" y="94.5" width="40.75" height="24.58"/><polygon class="cls-1" points="172 178 172 219 106.5 219 106.5 283.5 65.5 283.5 65.5 219 0 219 0 178 65.5 178 65.5 111.5 106.5 111.5 106.5 178 172 178"/><path class="cls-2" d="M760,111.5v41a131,131,0,0,0-131,131H588v-172h41V172a173.34,173.34,0,0,1,19.54-19.54,171.15,171.15,0,0,1,103-40.79C754.31,111.57,757.15,111.5,760,111.5Z"/><path class="cls-2" d="M564.5,164.75V283.5h-41V164.75a12.25,12.25,0,0,0-24.5,0V283.5H458V164.75a12.25,12.25,0,0,0-24.5,0V283.5h-41V164.75a53.24,53.24,0,0,1,86-42,53.26,53.26,0,0,1,84.59,29.74A53.68,53.68,0,0,1,564.5,164.75Z"/><path d="M369,197.5c0-2.87-.14-5.71-.41-8.5a86.12,86.12,0,0,0-1.81-11c-.08-.34-.16-.67-.25-1a84.62,84.62,0,0,0-10.24-24.5A86,86,0,0,0,199.22,178a84.52,84.52,0,0,0-1.89,12q-.33,3.7-.33,7.5a87.67,87.67,0,0,0,.52,9.5,86.34,86.34,0,0,0,2.19,12,86.06,86.06,0,0,0,74.79,64.09c2.79.27,5.63.41,8.5.41h40.56v-41H283A45,45,0,0,1,243.46,219H369V206h-.41C368.86,203.21,369,200.37,369,197.5ZM242.44,178a45,45,0,0,1,80.63-1c.17.33.33.67.49,1Z"/><path d="M237.75,81.41V94.5h-41V86a45.25,45.25,0,0,0-90.5,0v8.5h-41V86c0-2.87.14-5.71.42-8.5A86.23,86.23,0,0,1,142.75.44Q147.08,0,151.56,0c2.76,0,5.5.13,8.19.39a84.61,84.61,0,0,1,12,2,86.21,86.21,0,0,1,65.7,75.13C237.58,78.79,237.68,80.1,237.75,81.41Z"/></g></g></svg>